<svg width="33" height="33" viewBox="0 0 66 66" fill="none" xmlns="http://www.w3.org/2000/svg">
<path d="M22.0754 51.2273C22.0754 51.4851 21.7694 51.6914 21.3835 51.6914C20.9444 51.7301 20.6383 51.5238 20.6383 51.2273C20.6383 50.9695 20.9444 50.7633 21.3302 50.7633C21.7294 50.7246 22.0754 50.9309 22.0754 51.2273ZM17.9371 50.6473C17.844 50.9051 18.1101 51.2016 18.5093 51.2789C18.8552 51.4078 19.2544 51.2789 19.3343 51.0211C19.4141 50.7633 19.1613 50.4668 18.7621 50.3508C18.4161 50.2605 18.0302 50.3894 17.9371 50.6473ZM23.8186 50.4281C23.4327 50.5184 23.1665 50.7633 23.2065 51.0598C23.2464 51.3176 23.5923 51.4852 23.9915 51.3949C24.3774 51.3047 24.6435 51.0598 24.6036 50.8019C24.5637 50.557 24.2044 50.3895 23.8186 50.4281ZM32.5742 1.03125C14.1181 1.03125 0 14.6051 0 32.4844C0 46.7801 9.2879 59.0133 22.5544 63.3187C24.2577 63.6152 24.8565 62.5969 24.8565 61.759C24.8565 60.9598 24.8165 56.5512 24.8165 53.8441C24.8165 53.8441 15.502 55.7777 13.546 50.0027C13.546 50.0027 12.029 46.2516 9.84678 45.2848C9.84678 45.2848 6.7996 43.2609 10.0597 43.2996C10.0597 43.2996 13.373 43.5574 15.196 46.6254C18.1101 51.6012 22.9936 50.1703 24.8964 49.3195C25.2024 47.257 26.0673 45.8262 27.0254 44.9754C19.5871 44.1762 12.0823 43.132 12.0823 30.7312C12.0823 27.1863 13.0935 25.4074 15.2226 23.1387C14.8766 22.3008 13.7456 18.8461 15.5685 14.3859C18.3496 13.548 24.75 17.8664 24.75 17.8664C27.4113 17.1445 30.2722 16.7707 33.1065 16.7707C35.9407 16.7707 38.8016 17.1445 41.4629 17.8664C41.4629 17.8664 47.8633 13.5352 50.6444 14.3859C52.4673 18.859 51.3363 22.3008 50.9903 23.1387C53.1194 25.4203 54.4234 27.1992 54.4234 30.7312C54.4234 43.1707 46.5859 44.1633 39.1476 44.9754C40.3718 45.9937 41.4097 47.9273 41.4097 50.9566C41.4097 55.3008 41.3698 60.6762 41.3698 61.7332C41.3698 62.5711 41.9819 63.5894 43.6718 63.293C56.9782 59.0133 66 46.7801 66 32.4844C66 14.6051 51.0302 1.03125 32.5742 1.03125ZM12.9339 45.491C12.7609 45.6199 12.8008 45.9164 13.027 46.1613C13.2399 46.3676 13.546 46.4578 13.719 46.2902C13.8919 46.1613 13.852 45.8648 13.6258 45.6199C13.4129 45.4137 13.1069 45.3234 12.9339 45.491ZM11.4968 44.4469C11.4036 44.6144 11.5367 44.8207 11.8028 44.9496C12.0157 45.0785 12.2819 45.0398 12.375 44.8594C12.4681 44.6918 12.3351 44.4855 12.069 44.3566C11.8028 44.2793 11.5899 44.318 11.4968 44.4469ZM15.8081 49.0359C15.5952 49.2035 15.675 49.5902 15.981 49.8352C16.2871 50.1316 16.673 50.1703 16.846 49.9641C17.019 49.7965 16.9391 49.4098 16.673 49.1648C16.3802 48.8684 15.981 48.8297 15.8081 49.0359ZM14.2911 47.141C14.0782 47.2699 14.0782 47.6051 14.2911 47.9016C14.504 48.198 14.8633 48.3269 15.0363 48.198C15.2492 48.0305 15.2492 47.6953 15.0363 47.3988C14.85 47.1023 14.504 46.9734 14.2911 47.141Z" fill="#fff"/>
</svg>