<svg width="66" height="66" viewBox="0 0 66 66" fill="none" xmlns="http://www.w3.org/2000/svg">
<path d="M59.2157 19.5571C59.2576 20.1434 59.2576 20.7298 59.2576 21.3161C59.2576 39.1979 45.6472 59.8021 20.7716 59.8021C13.1078 59.8021 5.9886 57.5824 0 53.7298C1.08887 53.8553 2.13572 53.8972 3.26648 53.8972C9.58998 53.8972 15.4111 51.7615 20.0596 48.1181C14.1129 47.9924 9.1294 44.0978 7.41237 38.7374C8.25 38.8629 9.0875 38.9467 9.96703 38.9467C11.1815 38.9467 12.396 38.7791 13.5266 38.4861C7.32871 37.2297 2.68009 31.7856 2.68009 25.2107V25.0433C4.48078 26.0483 6.57486 26.6765 8.79424 26.7602C5.15084 24.3312 2.76388 20.1853 2.76388 15.4949C2.76388 12.9823 3.4338 10.679 4.60646 8.66881C11.2651 16.8769 21.274 22.2372 32.4973 22.8236C32.2879 21.8185 32.1622 20.7717 32.1622 19.7247C32.1622 12.2703 38.1927 6.19806 45.6889 6.19806C49.5835 6.19806 53.1012 7.8313 55.5721 10.4696C58.6291 9.88336 61.5606 8.75259 64.1572 7.20314C63.1519 10.3441 61.0162 12.9824 58.2104 14.6574C60.9326 14.3644 63.5709 13.6104 65.9997 12.5636C64.1574 15.2437 61.854 17.6306 59.2157 19.5571V19.5571Z" fill="black"/>
</svg>
