<svg width="128" height="147" viewBox="0 0 128 147" fill="none" xmlns="http://www.w3.org/2000/svg">
<g clip-path="url(#clip0_23_15)">
<path d="M36.0819 58.2861C35.9379 64.7891 38.2019 67.6688 38.2579 69.4977C38.2313 69.8699 38.1429 70.2276 38.0002 70.5408C37.8576 70.854 37.6648 71.1136 37.4379 71.2979L34.8779 73.8704C34.5466 74.2038 34.1561 74.395 33.7519 74.4216C33.6659 74.4159 32.1139 74.9471 29.6559 67.0688C28.1563 69.756 26.2482 71.915 24.0778 73.3806C21.9074 74.8461 19.5321 75.5794 17.1339 75.5241C13.8779 75.7797 5.05392 72.8713 5.50792 59.3857C5.18992 48.3952 12.3199 41.5677 19.6939 42.1448C21.1139 42.1505 24.0139 42.251 29.0919 43.945V39.4603C29.6299 31.8634 26.1519 25.9691 20.1299 26.8534C19.6499 26.8562 16.2499 26.7098 10.9619 29.756C9.48992 30.7265 9.30192 30.5657 8.81192 30.5657C7.32992 30.5657 7.93992 24.3986 8.22392 23.6176C9.26591 21.7801 15.3959 18.3492 21.4119 18.398C25.4344 17.8873 29.4353 19.6694 32.5499 23.3592C33.816 25.3922 34.7819 27.7725 35.3893 30.3562C35.9967 32.94 36.233 35.6737 36.0839 38.3923L36.0819 58.2861ZM18.7979 67.5856C25.2839 67.4506 28.0299 61.852 28.6559 58.8373C29.1479 55.9519 29.0659 54.1259 29.0659 50.9705C27.1319 50.3044 24.3479 49.5781 21.1539 49.5723C18.1239 49.245 12.5899 51.1887 12.8059 58.8345C12.5579 63.655 15.0299 67.8497 18.7979 67.5856ZM52.9819 74.2034C51.4099 74.4102 50.6779 72.8081 50.4459 71.2261L40.4859 23.9536C40.2919 23.1554 40.1639 22.3314 40.1019 21.4902C40.0652 21.1433 40.1259 20.7898 40.2706 20.5071C40.4154 20.2245 40.6324 20.0359 40.8739 19.9828C40.9219 19.9713 40.4479 19.9828 45.3239 19.9828C47.0799 19.7302 47.6519 21.7141 47.8339 22.9602L54.9779 63.3938L61.6099 22.9602C61.7159 22.0357 62.1979 19.7819 64.1699 20.0202H67.6019C68.0359 19.9685 69.8239 19.8766 70.1379 22.9975L76.8219 63.9479L84.1959 22.9975C84.2919 22.3716 84.7399 19.733 86.7319 20.0202H90.6759C90.8459 19.9828 91.9059 19.7876 91.7259 22.4835C91.6399 23.0147 92.4079 19.423 81.1759 71.2634C80.9459 72.8454 80.2119 74.4475 78.6399 74.2408H74.9019C72.7139 74.5709 72.3999 71.4673 72.3659 71.1543L65.7339 31.783L59.1779 71.1141C59.1459 71.4271 58.8319 74.5307 56.6419 74.2006H52.9819V74.2034ZM107.678 75.8199C106.502 75.8227 100.894 75.7337 96.2059 72.2913C95.7389 72.0074 95.3412 71.5309 95.0631 70.9222C94.785 70.3134 94.6391 69.5998 94.6439 68.8718V65.7854C94.6439 63.3593 95.8839 63.8043 96.4099 64.0943C98.4179 65.26 99.7059 66.1443 102.172 66.8506C109.502 69.0125 112.726 66.1902 113.516 65.5643C116.146 63.322 116.354 58.1913 114.566 55.5298C112.47 53.0061 111.47 52.9114 103.94 49.5005C103.012 49.1302 95.1999 45.593 95.1819 34.4675C95.0599 26.3595 100.192 18.3377 109.086 18.4037C111.62 18.4009 118.372 19.5895 120.2 22.8884C120.47 23.4884 120.604 24.1947 120.584 24.9096V27.8123C120.584 29.0871 120.26 29.7244 119.61 29.7244C118.068 29.4775 115.332 26.5174 109.778 26.638C108.4 26.5347 101.8 26.8993 102.096 33.8071C102.01 39.2507 107.418 41.2921 108.036 41.5275C115.328 44.6771 117.766 45.1996 120.66 50.0202C124.088 56.4084 122.24 63.8876 121.53 65.9376C117.714 76.7013 107.846 75.8256 107.678 75.8199ZM115.718 105.926C101.712 120.775 81.3799 128.68 64.0199 128.68C40.596 128.901 17.9615 116.537 0.565916 94.0169C-0.740084 92.3258 0.411916 90.0088 1.99992 91.2979C21.2968 107.144 43.145 115.47 65.3759 115.45C81.9774 115.322 98.3977 110.487 113.694 101.223C116.05 99.7878 118.048 103.463 115.718 105.926ZM121.556 96.3683C119.764 93.0608 109.7 94.8236 105.194 95.596C103.836 95.817 103.606 94.126 104.836 92.877C112.85 84.7892 126.012 87.1061 127.524 89.8251C129.034 92.544 127.114 111.476 119.612 120.52C118.46 121.918 117.358 121.18 117.87 119.343C119.558 113.242 123.348 99.6787 121.556 96.3683Z" fill="black"/>
</g>
<defs>
<clipPath id="clip0_23_15">
<rect width="128" height="147" fill="white"/>
</clipPath>
</defs>
</svg>
