<svg width="142" height="145" viewBox="0 0 142 145" fill="none" xmlns="http://www.w3.org/2000/svg">
<g clip-path="url(#clip0_7_12)">
<path d="M102.706 88.6143C106.33 86.7168 111.359 85.0742 111.359 85.0742C111.359 85.0742 97.0481 87.0566 82.8111 87.9629C65.394 89.0674 46.6825 89.2939 37.2898 88.3311C15.0653 86.0654 49.4929 79.8066 49.4929 79.8066C49.4929 79.8066 36.1434 79.127 19.6877 85.1875C0.273659 92.3809 67.7606 95.666 102.706 88.6143ZM71.1257 79.5234C64.0997 67.4307 40.3961 56.8105 71.1257 38.2324C109.458 15.0664 89.8002 0 89.8002 0C97.7507 23.9307 61.844 31.1807 48.8643 46.0488C40.0263 56.2158 53.1908 67.1191 71.1257 79.5234ZM113.504 29.623C113.541 29.623 48.7164 42.0273 79.6679 69.3281C88.8018 77.3711 77.2643 84.6211 77.2643 84.6211C77.2643 84.6211 100.45 75.4453 89.8002 63.9756C79.8528 53.2705 72.2351 47.9463 113.504 29.623ZM111.248 106.229C111.046 106.499 110.797 106.747 110.509 106.966C157.953 97.4219 140.499 73.293 117.83 79.4102C116.606 79.7547 115.548 80.3771 114.798 81.1943C116.122 80.8274 117.482 80.5433 118.866 80.3447C130.329 78.5039 146.785 92.0977 111.248 106.229ZM128.687 123.873C128.687 123.873 134.049 127.243 122.808 129.877C101.397 134.833 33.762 136.334 14.9766 130.075C8.20939 127.838 20.8932 124.694 24.887 124.043C29.0287 123.363 31.4323 123.477 31.4323 123.477C23.9255 119.427 -17.1213 131.435 10.5761 134.861C86.1023 144.264 148.286 130.642 128.687 123.873ZM46.0169 112.148C16.9143 118.379 63.7299 131.236 100.783 119.087C97.1693 118.012 93.6808 116.704 90.3549 115.179C73.8252 117.586 66.1705 117.756 51.157 116.453C38.769 115.377 46.0169 112.148 46.0169 112.148ZM112.505 139.676C83.4028 143.867 47.496 143.386 26.233 140.695C26.233 140.667 30.5966 143.442 53.0059 144.547C87.1007 146.218 139.463 143.612 140.684 131.265C140.684 131.265 138.317 135.938 112.505 139.676ZM96.3825 99.9707C74.4908 103.199 61.807 103.114 45.795 101.84C33.407 100.849 41.5054 96.2607 41.5054 96.2607C9.40751 104.417 59.3294 113.649 104.185 103.596C101.286 102.812 98.6297 101.578 96.3825 99.9707Z" fill="black"/>
</g>
<defs>
<clipPath id="clip0_7_12">
<rect width="142" height="145" fill="white"/>
</clipPath>
</defs>
</svg>
