<svg width="128" height="147" viewBox="0 0 128 147" fill="none" xmlns="http://www.w3.org/2000/svg">
<path d="M0 9.1875V137.812H128V9.1875H0ZM69.6572 109.504C69.6572 122.021 62.3429 127.735 51.6857 127.735C42.0571 127.735 36.4857 122.739 33.6286 116.681L43.4286 110.738C45.3143 114.097 47.0286 116.94 51.1714 116.94C55.1143 116.94 57.6286 115.389 57.6286 109.331V68.2459H69.6572V109.504ZM98.1143 127.735C86.9429 127.735 79.7143 122.395 76.2 115.389L86 109.704C88.5714 113.925 91.9429 117.054 97.8571 117.054C102.829 117.054 106.029 114.557 106.029 111.083C106.029 106.948 102.771 105.484 97.2571 103.044L94.2571 101.752C85.5714 98.0479 79.8286 93.368 79.8286 83.5201C79.8286 74.4475 86.7143 67.5568 97.4286 67.5568C105.086 67.5568 110.571 70.227 114.514 77.2324L105.143 83.2617C103.086 79.558 100.857 78.0938 97.4 78.0938C93.8857 78.0938 91.6571 80.3332 91.6571 83.2617C91.6571 86.8793 93.8857 88.3436 99.0572 90.6117L102.057 91.9037C112.286 96.2965 118.029 100.804 118.029 110.91C118.029 121.763 109.514 127.735 98.1143 127.735Z" fill="black"/>
</svg>
