<svg width="113" height="119" viewBox="0 0 113 119" fill="none" xmlns="http://www.w3.org/2000/svg">
<g clip-path="url(#clip0_10_47)">
<path d="M112.912 8.56716L98.7868 105.045C98.4557 107.308 97.1591 109.28 95.2621 110.403C94.193 111.035 92.9955 111.355 91.8015 111.355C90.8772 111.355 89.9655 111.166 89.0891 110.781L62.0308 98.9037L50.8059 116.635C49.9451 118.187 48.5106 119 46.9657 119C44.4276 119 42.375 116.839 42.375 114.166V91.8114C42.375 90.1577 42.8985 88.5505 43.863 87.2466L91.8125 22.3126L26.992 83.7417L4.34567 73.794C1.86232 72.7017 0.179345 70.238 0.0138174 67.1933C-0.15171 64.1485 1.22084 61.6802 3.55831 60.2741L102.433 0.983234C104.793 -0.436631 107.704 -0.30601 109.937 1.31002C112.171 2.92605 113.331 5.74556 112.912 8.56716Z" fill="black"/>
</g>
<defs>
<clipPath id="clip0_10_47">
<rect width="113" height="119" fill="white"/>
</clipPath>
</defs>
</svg>
