<svg width="128" height="147" viewBox="0 0 128 147" fill="none" xmlns="http://www.w3.org/2000/svg">
<path d="M104.55 50.8757C103.2 50.3589 101.85 49.8709 100.5 49.4115C100.725 48.3492 100.925 47.2869 101.125 46.2246C104.2 29.1128 102.175 15.3603 95.35 10.824C88.775 6.48862 78.05 10.9962 67.2 21.849C66.125 22.9113 65.075 24.031 64.075 25.1507C63.4 24.4042 62.7 23.6578 62 22.94C50.625 11.3408 39.225 6.45991 32.4 11.025C25.85 15.389 23.9 28.3376 26.65 44.5306C26.925 46.1384 27.225 47.7175 27.575 49.3253C25.975 49.8421 24.4 50.4164 22.925 51.0193C9.575 56.3308 0 64.7144 0 73.3851C0 82.3429 10.2 91.3295 24.075 96.7845C25.2 97.2152 26.325 97.6459 27.475 98.0191C27.1 99.7418 26.775 101.436 26.475 103.187C23.85 119.122 25.9 131.754 32.45 136.09C39.2 140.569 50.55 135.975 61.6 124.864C62.475 123.974 63.35 123.055 64.225 122.079C65.325 123.313 66.475 124.491 67.625 125.639C78.325 136.205 88.9 140.483 95.425 136.147C102.175 131.668 104.375 118.088 101.525 101.551C101.3 100.287 101.05 98.9953 100.775 97.6746C101.575 97.4162 102.35 97.1291 103.125 96.8419C117.55 91.3582 128 82.4865 128 73.3851C128 64.6857 118.15 56.2447 104.55 50.8757ZM70.725 26.5001C80.025 17.1978 88.7 13.5515 92.65 16.1642C96.875 18.9492 98.5 30.2039 95.85 44.99C95.675 45.9662 95.5 46.9136 95.275 47.8611C89.725 46.4255 84.1 45.3919 78.45 44.8177C75.2 39.4775 71.65 34.3669 67.8 29.5722C68.775 28.5099 69.725 27.505 70.725 26.5001ZM41.8 88.2861C43.075 90.7839 44.375 93.2818 45.75 95.7222C41.85 95.2341 37.975 94.5164 34.15 93.5689C35.25 89.4345 36.625 85.1566 38.225 80.7925C39.375 83.3191 40.55 85.8169 41.8 88.2861ZM34.225 53.7468C37.825 52.8281 41.65 52.0816 45.625 51.5074C44.3 53.8904 43 56.3308 41.775 58.8C40.55 61.2404 39.35 63.7382 38.225 66.2648C36.65 61.9869 35.325 57.7951 34.225 53.7468ZM41.075 73.5287C42.725 69.5666 44.525 65.6906 46.425 61.872C48.325 58.0535 50.375 54.3498 52.525 50.7035C56.275 50.3876 60.1 50.2154 64 50.2154C67.9 50.2154 71.75 50.3876 75.475 50.7035C77.6 54.321 79.625 58.0248 81.55 61.8146C83.475 65.6044 85.275 69.4804 86.975 73.4138C85.3 77.3759 83.5 81.2806 81.575 85.1279C79.675 88.9464 77.65 92.6502 75.525 96.3251C71.8 96.641 67.925 96.7845 64 96.7845C60.075 96.7845 56.275 96.641 52.6 96.3826C50.425 92.7363 48.375 89.0039 46.45 85.1853C44.525 81.3668 42.75 77.4908 41.075 73.5287ZM86.225 88.2287C87.5 85.7021 88.7 83.1468 89.875 80.5629C91.475 84.7259 92.875 88.9464 94.1 93.2818C90.225 94.2867 86.3 95.0619 82.35 95.5787C83.7 93.1669 84.975 90.6978 86.225 88.2287ZM89.825 66.2648C88.65 63.7382 87.45 61.2117 86.2 58.7425C84.975 56.3021 83.7 53.8904 82.375 51.5074C86.4 52.0816 90.25 52.8568 93.85 53.8042C92.7 58.0535 91.35 62.1878 89.825 66.2648ZM64.05 33.965C66.675 37.238 69.15 40.6834 71.45 44.2435C66.5 43.9851 61.525 43.9851 56.575 44.2435C59.025 40.5398 61.55 37.0945 64.05 33.965ZM35.05 16.3652C39.25 13.5515 48.575 17.571 58.4 27.5625C59.025 28.1941 59.65 28.8832 60.3 29.5722C56.425 34.3669 52.85 39.4775 49.575 44.8177C43.925 45.3919 38.325 46.3968 32.775 47.8037C32.45 46.3394 32.175 44.8464 31.9 43.3535C29.55 29.4574 31.1 18.9779 35.05 16.3652ZM28.925 92.0472C27.875 91.7027 26.85 91.3295 25.825 90.9275C20.5 89.0039 14.45 85.9605 10.075 81.9697C7.55 79.9599 5.85 76.8591 5.375 73.3851C5.375 68.131 13.275 61.4126 24.675 56.8476C26.1 56.2734 27.55 55.7566 29 55.2685C30.7 61.4988 32.75 67.6142 35.125 73.5287C32.725 79.5293 30.65 85.7308 28.925 92.0472ZM58.075 120.184C53.95 124.519 49.175 127.965 43.975 130.319C41.2 131.841 38 131.984 35.15 130.692C31.175 128.051 29.525 117.916 31.775 104.278C32.05 102.67 32.35 101.062 32.7 99.4834C38.3 100.861 43.95 101.809 49.675 102.297C52.975 107.666 56.6 112.805 60.475 117.629C59.675 118.519 58.875 119.38 58.075 120.184ZM64.2 113.207C61.65 110.049 59.1 106.546 56.625 102.785C59.025 102.9 61.5 102.957 64 102.957C66.575 102.957 69.1 102.9 71.6 102.756C69.3 106.403 66.825 109.877 64.2 113.207ZM96.875 121.82C96.65 125.323 95.15 128.596 92.75 130.807C88.775 133.448 80.3 130.003 71.15 120.988C70.1 119.954 69.05 118.835 67.975 117.686C71.8 112.834 75.325 107.695 78.525 102.297C84.25 101.752 89.95 100.747 95.575 99.2824C95.825 100.46 96.05 101.637 96.25 102.785C97.475 108.987 97.675 115.447 96.875 121.82ZM101.425 90.9562C100.725 91.2146 100.025 91.473 99.3 91.7027C97.55 85.4437 95.4 79.3283 92.925 73.3851C95.325 67.5281 97.35 61.4988 99.05 55.3259C100.35 55.7566 101.6 56.216 102.8 56.6753C114.45 61.2691 122.625 68.1023 122.625 73.3277C122.625 78.955 113.9 86.2189 101.425 90.9562ZM64 86.6496C70.325 86.6496 75.45 80.7638 75.45 73.5C75.45 66.2361 70.325 60.3503 64 60.3503C57.675 60.3503 52.55 66.2361 52.55 73.5C52.55 80.7638 57.675 86.6496 64 86.6496Z" fill="black"/>
</svg>
