<svg width="146" height="160" viewBox="0 0 146 160" fill="none" xmlns="http://www.w3.org/2000/svg">
<path d="M68.8573 118.413C68.7888 118.6 68.7204 118.75 68.8573 118.413V118.413ZM125.69 91.225C121.102 91.223 116.575 92.6664 112.459 95.4438C111.113 91.725 109.721 88.475 109.493 86.0375C109.219 83.1938 108.923 81.5063 109.242 78.1313C109.562 74.7563 110.999 69.975 110.976 69.6313C110.953 69.2875 110.657 67.5688 107.714 67.5375C104.771 67.5063 102.239 68.3188 101.945 69.3813C101.425 71.323 101.02 73.3191 100.735 75.35C100.211 79.0063 94.8521 92.0688 91.8181 98.8813C90.8143 96.225 89.9702 93.8813 89.7877 92.0063C89.514 89.1625 89.2174 87.475 89.5368 84.1C89.8562 80.725 91.2934 75.9438 91.2705 75.6C91.2477 75.2563 90.9512 73.5375 88.0106 73.5063C85.0701 73.475 82.5356 74.2875 82.2391 75.35C81.9425 76.4125 81.6231 78.9125 81.03 81.3188C80.4369 83.725 73.2989 105.475 71.4305 111.131C70.4724 114.006 69.6511 116.319 69.058 117.881C68.9668 118.131 68.8983 118.288 68.8527 118.413C68.9211 118.256 68.9668 118.1 68.9668 118.163C68.4649 119.506 68.1683 120.256 68.1683 120.256V120.288C67.7805 121.288 67.3471 122.194 67.1418 122.194C67.0049 122.194 66.7083 119.569 67.2102 115.975C68.2824 108.413 70.8146 96.6625 70.7918 96.2563C70.769 96.0375 71.2708 94.0063 69.1264 92.9125C67.0505 91.8813 66.2977 93.6 66.1152 93.6C65.9327 93.6 65.7958 94.225 65.7958 94.225C65.7958 94.225 68.0999 80.975 61.3725 80.975C57.175 80.975 51.335 87.2875 48.4652 93.0063C46.663 94.35 42.762 97.2563 38.6558 100.35C37.0817 101.538 35.462 102.756 33.9336 103.913C33.8195 103.756 33.7283 103.6 33.6142 103.444C25.4496 91.5063 10.3751 83.0688 11.0139 67.0375C11.242 61.1938 12.7248 45.85 40.0017 27.225C62.358 11.975 80.2316 16.1625 83.309 25.475C87.7346 38.7563 73.7528 63.475 50.5365 67.0375C41.6876 68.3813 37.0361 63.6938 35.8727 61.9438C34.6636 60.1 34.4811 60.0063 34.0248 60.35C33.272 60.9125 33.7511 62.5375 34.0248 63.5063C34.7092 65.975 37.5608 70.35 42.4176 72.5375C46.6835 74.4438 57.0586 75.5063 69.6032 68.85C83.6968 61.4125 94.6673 40.6938 91.4508 23.35C88.1749 5.72502 66.8406 -0.0562334 46.6675 9.75627C34.6476 15.6 21.6491 24.7875 12.2982 36.7563C1.19081 51.0063 -0.586282 63.4125 0.143718 68.6C2.74206 87.0063 21.2613 99.0063 28.673 107.881C28.308 108.163 27.9659 108.413 27.6465 108.663C23.9303 111.194 9.81166 121.319 6.278 132.006C2.28581 144.131 6.93956 152.819 9.99416 154.006C19.5275 157.631 29.289 151.1 34.5336 140.381C39.7782 129.663 39.1417 115.663 36.7236 109.288C36.7008 109.194 36.6551 109.131 36.6323 109.038C37.5904 108.256 38.5714 107.475 39.5523 106.694C41.4435 105.163 43.2913 103.756 44.911 102.538C43.9985 105.913 43.3369 109.975 42.9947 115.85C42.5841 122.725 44.66 131.631 47.3519 135.131C48.5382 136.663 49.9731 136.694 50.8628 136.694C54.0109 136.694 55.4253 133.131 56.997 128.881C58.9361 123.694 60.647 117.663 60.647 117.663C60.647 117.663 58.5027 133.975 64.3655 133.975C66.5076 133.975 68.652 130.194 69.6124 128.256V128.288C69.6124 128.288 69.658 128.163 69.772 127.913C70.0002 127.444 70.1142 127.163 70.1142 127.163V127.069C70.9811 125.038 72.8745 120.381 75.7238 112.694C79.4195 102.756 82.9531 90.35 82.9531 90.35C83.2946 93.0772 83.7671 95.7706 84.3675 98.4125C85.0062 101.381 86.3522 104.631 87.4244 107.788C86.5575 109.413 86.0328 110.35 86.0328 110.35C86.0345 110.374 86.0426 110.396 86.0556 110.413C85.3712 111.663 84.5956 113.006 83.7972 114.319C80.8795 119.069 77.4097 124.506 76.9534 126.069C76.4059 127.913 76.5428 129.288 77.5922 130.35C78.3678 131.163 79.7365 131.288 81.1715 131.131C83.7949 130.881 85.6427 130.006 86.5324 129.444C88.1726 128.638 89.7228 127.523 91.1382 126.131C93.9898 123.256 95.7236 119.131 95.5639 113.694C95.4726 110.694 94.7654 107.694 93.8985 104.881C94.1495 104.381 94.4232 103.85 94.6742 103.319C99.1888 94.2875 102.679 84.375 102.679 84.375C103.021 87.1022 103.493 89.7956 104.093 92.4375C104.641 94.9688 105.711 97.75 106.692 100.469C102.451 105.188 99.8275 110.656 98.915 114.25C97.2269 120.906 98.55 123.906 101.037 124.594C102.154 124.906 103.751 124.188 104.938 123.5C106.699 122.696 108.36 121.526 109.863 120.031C112.714 117.156 115.472 113.125 115.29 107.656C115.221 105.188 114.72 102.719 114.058 100.344C117.64 98.2813 122.291 97.1563 128.222 98.0938C140.924 100.125 143.411 111 142.932 115.531C142.453 120.063 139.784 122.594 138.894 123.344C138.004 124.094 137.731 124.375 137.799 124.938C137.913 125.75 138.324 125.719 139.076 125.531C140.126 125.281 145.735 121.844 145.986 113.438C146.351 102.813 138.894 91.125 125.683 91.2188L125.69 91.225ZM27.7833 136.444C23.5881 142.725 17.7025 145.1 15.1726 143.1C12.4579 140.938 13.5301 131.694 18.7063 125C21.8544 120.938 25.9127 117.188 28.6046 114.875C29.2205 114.375 30.1102 113.625 31.2052 112.719C31.3877 112.563 31.479 112.5 31.479 112.5C31.6843 112.313 31.9124 112.156 32.1405 111.969C34.0317 121.469 32.209 129.844 27.7833 136.438V136.444ZM58.4342 107.881C56.9742 112.788 53.8968 125.288 52.0262 124.631C50.4293 124.069 49.4484 114.538 51.7068 105.163C52.8474 100.444 55.2656 94.8188 56.7028 92.6313C59.0045 89.1 61.5367 87.975 62.1299 89.3813C62.9283 91.225 59.3467 104.819 58.4342 107.881ZM83.7561 124.444C83.1402 124.881 82.5699 125.163 82.2961 124.944C82.0908 124.788 82.547 124.194 82.547 124.194C82.547 124.194 85.718 119.538 86.9727 117.413C87.7027 116.163 88.5467 114.694 89.457 113.069C89.457 113.225 89.4798 113.381 89.4798 113.569C89.4501 119.163 85.5286 122.944 83.7493 124.444H83.7561ZM103.279 118.35C102.823 117.913 102.891 116.444 104.42 111.881C105.013 110.1 106.379 107.1 108.754 104.225C109.023 105.313 109.169 106.451 109.187 107.6C109.165 114.631 105.492 117.256 103.281 118.35H103.279Z" fill="black"/>
</svg>
